<svg xmlns="http://www.w3.org/2000/svg" width="920" height="170" fill="none"><g clip-path="url(#a)"><rect width="920" height="170" fill="#fff" rx="16"/><g clip-path="url(#b)"><path fill="url(#c)" d="M124.186 24.689c-4.111.019-8.037.367-11.491.974-10.176 1.787-12.023 5.525-12.023 12.42v9.105h24.046v3.036h-33.07c-6.989 0-13.108 4.173-15.022 12.113-2.208 9.1-2.306 14.78 0 24.282 1.71 7.073 5.791 12.113 12.78 12.113h8.267V87.816c0-7.886 6.867-14.842 15.022-14.842h24.018c6.686 0 12.023-5.47 12.023-12.14V38.082c0-6.475-5.497-11.339-12.023-12.42-4.131-.683-8.417-.993-12.527-.974Zm-13.004 7.323c2.483 0 4.512 2.049 4.512 4.567 0 2.51-2.029 4.539-4.512 4.539-2.493 0-4.513-2.03-4.513-4.539 0-2.518 2.02-4.567 4.513-4.567Z"/><path fill="url(#d)" d="M151.735 50.224v10.61c0 8.224-7.019 15.147-15.022 15.147h-24.018c-6.579 0-12.023 5.595-12.023 12.142v22.75c0 6.475 5.667 10.283 12.023 12.141 7.612 2.224 14.911 2.626 24.018 0 6.054-1.742 12.023-5.246 12.023-12.141v-9.106h-24.018v-3.035h36.041c6.989 0 9.593-4.844 12.023-12.113 2.511-7.484 2.404-14.681 0-24.282-1.727-6.913-5.026-12.113-12.023-12.113h-9.024Zm-13.509 57.614c2.493 0 4.513 2.029 4.513 4.539 0 2.518-2.02 4.566-4.513 4.566-2.483 0-4.512-2.048-4.512-4.566 0-2.51 2.029-4.539 4.512-4.539Z"/><path fill="url(#e)" d="M124.991 144.688c17.797 0 32.224-2.78 32.224-6.208 0-3.429-14.427-6.209-32.224-6.209-17.797 0-32.224 2.78-32.224 6.209 0 3.428 14.427 6.208 32.224 6.208Z" opacity=".444"/></g><path stroke="#000" stroke-linecap="round" stroke-width="4" d="M235.625 84.688h30m-15-15v30"/><g clip-path="url(#f)"><path fill="#0081FB" d="M359.631 40.708c3.326-.124 7.021.272 10.639 1.26 7.944 2.173 13.394 7.207 16.676 14.675 3.092 7.038 4.104 14.5 4.455 22.095.417 9.076.11 18.097-2.076 26.97-.685 2.785-1.636 5.481-2.899 8.06-3.702 7.544-9.665 12.261-17.887 13.945-6.356 1.301-12.775 1.308-19.131-.059-9.878-2.121-15.993-8.432-19.271-17.739-3.15-8.952-3.619-18.262-3.495-27.638.093-7.072.768-14.069 2.803-20.88 4.032-13.482 13.27-20.458 27.356-20.685.802-.014 1.608 0 2.83 0v-.004Z"/><path fill="#000" d="M430.509 84.285c12.894 4.108 12.168 20.191 5.237 26.636-2.693 2.503-6.064 3.43-9.572 3.798-7.72.809-15.474.196-23.211.396-1.212.031-.888-.754-.888-1.363-.014-6.367-.007-12.73-.007-19.096 0-12.272.017-24.543-.027-36.818-.004-1.208.172-1.663 1.542-1.625 7.393.213 14.802-.34 22.184.324 9.242.833 14.434 7.792 13.009 17.098-.741 4.831-3.223 8.223-7.734 10.12-.206.086-.451.11-.53.53h-.003Zm119.233 7.079c4.538-6.208 8.838-11.982 12.991-17.856.977-1.384 1.983-1.921 3.636-1.804 2.031.141 4.08.034 6.424.034-3.37 4.476-6.476 8.78-9.792 12.915-1.215 1.519-1.253 2.672-.468 4.39 3.877 8.467 7.606 16.999 11.383 25.511.045.1.058.21.151.544-2.943 0-5.822-.017-8.704.01-.936.011-.905-.771-1.115-1.284-2.559-6.236-5.079-12.488-7.617-18.734-.251-.624-.523-1.236-.85-1.997-1.949 2.647-3.795 5.192-5.685 7.705-.434.575-.351 1.181-.354 1.798-.007 3.67-.052 7.341.024 11.008.024 1.153-.193 1.611-1.46 1.528a43.509 43.509 0 0 0-5.675 0c-1.439.097-1.893-.224-1.886-1.807.072-17.085.044-34.17.044-51.252 0-1.49.09-2.988-.027-4.469-.093-1.195.372-1.412 1.439-1.37 2.062.079 4.132.103 6.191-.007 1.195-.066 1.374.382 1.37 1.443-.038 10.604-.02 21.213-.02 31.818v1.886-.01Zm-25.614 17.106c-2.693 4.741-6.404 7.674-12.02 7.654-6.849-.024-11.566-4.531-11.914-11.376-.437-8.58 4.225-14.29 12.899-15.794 3.057-.53 6.139-.795 9.241-.675.93.035 1.301-.148 1.27-1.177-.048-1.608-.096-3.213-.454-4.783-.64-2.823-2.059-4.3-4.614-4.635-2.768-.364-5.268.162-6.976 2.655-.258.376-.427.81-.668 1.195-.499.799-.186 2.155-1.129 2.48-.778.264-1.794-.142-2.699-.27-1.364-.185-2.717-.447-4.084-.557-.899-.073-1.105-.29-.895-1.236.988-4.47 3.584-7.634 7.688-9.503 4.728-2.156 9.662-2.383 14.575-.775 4.679 1.532 7.382 4.793 7.844 9.806.237 2.572.316 5.144.347 7.723.097 7.62-.313 15.25.317 22.859.079.967.227 1.928.362 3.037-2.541 0-5.055-.031-7.568.017-.94.017-.964-.541-1.047-1.202a78.552 78.552 0 0 1-.475-5.44v-.003Zm-27.432-6.064c-.148.624-.248 1.13-.392 1.622-2.293 7.802-7.503 11.965-15.136 12.092-8.009.135-14.041-3.904-16.297-11.603-2.551-8.725-2.53-17.512 1.935-25.703 4.9-8.987 17.13-10.946 24.275-4.152 3.095 2.94 4.483 6.714 5.195 10.79.465 2.655.648 5.344.799 8.037.059 1.06-.213 1.339-1.295 1.329-7.172-.052-14.34.01-21.512-.062-1.347-.014-1.65.375-1.529 1.635.231 2.393.275 4.81.971 7.138 1.301 4.349 5.416 6.69 9.482 5.375 2.899-.94 4.18-3.306 4.845-5.991.348-1.409.833-1.646 2.186-1.374 2.118.43 4.294.588 6.473.864v.003ZM448.193 85.5c0-9.234.027-18.465-.035-27.696-.01-1.285.289-1.663 1.584-1.584 2 .124 4.018.103 6.019.007 1.132-.055 1.408.293 1.404 1.408-.044 9.634-.027 19.268-.027 28.902 0 9.004-.031 18.008.034 27.011.011 1.285-.289 1.663-1.584 1.584-2-.124-4.018-.103-6.018-.007-1.133.055-1.408-.292-1.405-1.408.045-9.403.028-18.81.028-28.213V85.5Z"/><path fill="#FEFEFE" d="M356.281 76.975v-29.49c.651-.128.844.389 1.13.675 6.827 6.8 13.621 13.634 20.476 20.41.878.868.809 1.326-.028 2.15-4.341 4.258-8.597 8.6-12.942 12.852-.834.816-.916 1.247-.035 2.111 4.39 4.29 8.701 8.66 13.05 12.991.547.544 1.074.92.223 1.763-7.209 7.144-14.371 14.334-21.805 21.764V92.246c-.702.671-1.102 1.036-1.484 1.422-3.45 3.446-6.91 6.879-10.333 10.353-.592.603-.964.744-1.594.042-1.105-1.24-3.04-2.276-3.254-3.616-.203-1.277 1.901-2.338 3.006-3.467a800.36 800.36 0 0 1 11.29-11.338c.771-.758.847-1.16.028-1.966-4.614-4.552-9.138-9.194-13.752-13.745-.868-.858-.902-1.37.031-2.125 1.232-.998 2.152-3.081 3.481-3.02 1.157.052 2.245 1.922 3.34 3.013 2.957 2.951 5.905 5.912 9.169 9.183l.003-.007Zm55.421 20.738c0-2.806.01-5.612-.007-8.418-.003-.623-.017-1.092.861-1.057 3.429.134 6.869-.217 10.288.348 4.597.757 7.393 4.114 7.444 9.024.055 5.23-2.434 8.391-7.285 9.252-3.471.616-6.973.172-10.457.334-.892.041-.854-.455-.851-1.064.014-2.806.007-5.612.007-8.419Zm0-25.593v-7.213c0-.572-.124-1.143.813-1.098 3.254.151 6.524-.259 9.768.32 4.321.771 6.297 3.278 6.284 8.002-.014 4.658-2.225 7.485-6.377 8.212-3.188.557-6.397.237-9.6.358-.833.03-.905-.355-.898-1.023.027-2.52.01-5.037.01-7.558Zm111.875 24.76c-.128 3.164-.668 6.577-2.951 9.469-.978 1.236-2.138 2.21-3.691 2.661-3.326.968-6.122-.647-6.893-4.001-1.309-5.708 1.608-10.009 7.385-10.952 1.422-.23 2.844-.248 4.277-.307 1.411-.058 2.214.3 1.883 1.9-.058.276-.007.572-.007 1.23h-.003Zm-43.181-8.28c-2.114 0-4.231-.025-6.345.013-.741.014-1.185-.045-1.037-.995.338-2.204.627-4.41 1.708-6.411 1.388-2.569 3.557-3.774 6.473-3.605 2.789.162 4.721 1.577 5.802 4.114.792 1.86 1.016 3.847 1.133 5.854.048.837-.217 1.067-1.04 1.047-2.228-.052-4.459-.018-6.69-.018h-.004Z"/><path fill="#0182FB" d="M362.572 77.171V62.252c1.869 1.87 3.495 3.492 5.116 5.113 1.538 1.538 1.523 3.091-.044 4.659-1.595 1.605-3.175 3.22-5.072 5.147Zm.031 29.884V92.218c2.458 2.465 4.689 4.703 6.927 6.935.496.495.111.805-.213 1.132l-6.711 6.766-.003.004Z"/></g><path stroke="#000" stroke-linecap="round" stroke-width="4" d="M635.067 84.688h30m-15-15v30"/><g clip-path="url(#g)"><path fill="url(#h)" d="M846.067 24.688h-120v120h120v-120Z"/><g filter="url(#i)"><path fill="#fff" d="M804.935 53.047c-4.7 0-9.061 1.472-12.65 3.978-4.725-2.75-10.106-4.212-15.71-4.212-8.428 0-16.35 3.31-22.305 9.316-5.944 5.996-9.218 13.967-9.218 22.442s3.274 16.446 9.218 22.441c5.955 6.007 13.877 9.317 22.305 9.317 8.428 0 16.35-3.31 22.306-9.317a31.69 31.69 0 0 0 6.574-9.675c11.974-.276 21.628-10.101 21.628-22.141 0-12.04-9.935-22.149-22.148-22.149Zm-28.36 58.594c-14.822 0-26.836-12.12-26.836-27.07 0-14.951 12.014-27.07 26.836-27.07 4.296 0 8.353 1.017 11.953 2.83a22.057 22.057 0 0 0-5.742 14.865c0 10.685 7.606 19.626 17.688 21.698-4.443 8.756-13.476 14.747-23.899 14.747Zm30.532-19.118a17.754 17.754 0 0 1-4.854-.07c-8.372-1.29-14.779-8.525-14.779-17.257a17.4 17.4 0 0 1 5.114-12.347 17.497 17.497 0 0 1 3.872-2.923 17.357 17.357 0 0 1 8.475-2.191c9.644 0 17.461 7.816 17.461 17.46 0 8.91-6.671 16.26-15.289 17.328Z"/></g></g></g><defs><clipPath id="a"><path fill="#fff" d="M0 0h920v170H0z"/></clipPath><clipPath id="b"><path fill="#fff" d="M0 0h99.692v120H0z" transform="translate(74.933 24.688)"/></clipPath><clipPath id="f"><path fill="#fff" d="M0 0h247.442v88H0z" transform="translate(326.625 40.688)"/></clipPath><clipPath id="g"><path fill="#fff" d="M0 0h120v120H0z" transform="translate(726.067 24.688)"/></clipPath><linearGradient id="c" x1="74.933" x2="130.081" y1="24.688" y2="71.984" gradientUnits="userSpaceOnUse"><stop stop-color="#5A9FD4"/><stop offset="1" stop-color="#306998"/></linearGradient><linearGradient id="d" x1="137.649" x2="117.925" y1="111.611" y2="83.794" gradientUnits="userSpaceOnUse"><stop stop-color="#FFD43B"/><stop offset="1" stop-color="#FFE873"/></linearGradient><linearGradient id="h" x1="786.067" x2="786.067" y1="144.688" y2="24.688" gradientUnits="userSpaceOnUse"><stop stop-color="#1BABE0"/><stop offset=".12" stop-color="#18A0DC"/><stop offset=".23" stop-color="#1393D7"/><stop offset=".36" stop-color="#0D85CF"/><stop offset=".61" stop-color="#0066B4"/><stop offset=".74" stop-color="#0058A4"/><stop offset=".88" stop-color="#004B90"/><stop offset="1" stop-color="#004186"/></linearGradient><radialGradient id="e" cx="0" cy="0" r="1" gradientTransform="matrix(0 -6.20844 27.4646 0 124.991 138.48)" gradientUnits="userSpaceOnUse"><stop stop-color="#B8B8B8" stop-opacity=".498"/><stop offset="1" stop-color="#7F7F7F" stop-opacity="0"/></radialGradient><filter id="i" width="86.031" height="67.516" x="743.052" y="50.813" color-interpolation-filters="sRGB" filterUnits="userSpaceOnUse"><feFlood flood-opacity="0" result="BackgroundImageFix"/><feColorMatrix in="SourceAlpha" result="hardAlpha" values="0 0 0 0 0 0 0 0 0 0 0 0 0 0 0 0 0 0 127 0"/><feOffset/><feGaussianBlur stdDeviation="1"/><feColorMatrix values="0 0 0 0 0 0 0 0 0 0 0 0 0 0 0 0 0 0 0.17 0"/><feBlend in2="BackgroundImageFix" result="effect1_dropShadow_1_13"/><feBlend in="SourceGraphic" in2="effect1_dropShadow_1_13" result="shape"/></filter></defs></svg>
